<?xml version="1.0" encoding="utf-8"?>
<!-- Generator: Adobe Illustrator 16.0.4, SVG Export Plug-In . SVG Version: 6.00 Build 0)  -->
<!DOCTYPE svg PUBLIC "-//W3C//DTD SVG 1.1//EN" "http://www.w3.org/Graphics/SVG/1.1/DTD/svg11.dtd">
<svg version="1.1" id="Layer_1" xmlns="http://www.w3.org/2000/svg" xmlns:xlink="http://www.w3.org/1999/xlink" x="0px" y="0px"
	 width="512px" height="512px" viewBox="0 0 512 512" enable-background="new 0 0 512 512" xml:space="preserve">
<path d="M464,208L299,42c-14-14-37-2-37,16v74H61c-12,0-22,10-22,22v138c0,12,10,22,22,22h201v74c0,11,9,22,22,22c6,0,11-3,15-7
	c0,0,158-157,165-164C472,231,473,217,464,208z M306,335v-43c0-12-10-22-22-22H83v-94h201c12,0,22-10,22-22v-44l112,113L306,335z"/>
</svg>
