<?xml version="1.0" encoding="utf-8"?>
<!-- Generator: Adobe Illustrator 16.0.4, SVG Export Plug-In . SVG Version: 6.00 Build 0)  -->
<!DOCTYPE svg PUBLIC "-//W3C//DTD SVG 1.1//EN" "http://www.w3.org/Graphics/SVG/1.1/DTD/svg11.dtd">
<svg version="1.1" id="Layer_1" xmlns="http://www.w3.org/2000/svg" xmlns:xlink="http://www.w3.org/1999/xlink" x="0px" y="0px"
	 width="512px" height="512px" viewBox="0 0 512 512" enable-background="new 0 0 512 512" xml:space="preserve">
<path d="M279,404c0,14-10,25-24,25s-25-11-25-25V101l-91,91c-10,10-25,10-35,0c-5-5-7-11-7-17s3-13,8-18L238,24c5-5,10-7,17-7
	s12,2,17,7l133,133c10,10,10,25,0,35s-24,10-34,0l-92-91V404z"/>
</svg>
