<?xml version="1.0" encoding="utf-8"?>
<!-- Generator: Adobe Illustrator 16.0.4, SVG Export Plug-In . SVG Version: 6.00 Build 0)  -->
<!DOCTYPE svg PUBLIC "-//W3C//DTD SVG 1.1//EN" "http://www.w3.org/Graphics/SVG/1.1/DTD/svg11.dtd">
<svg version="1.1" id="Layer_1" xmlns="http://www.w3.org/2000/svg" xmlns:xlink="http://www.w3.org/1999/xlink" x="0px" y="0px"
	 width="512px" height="512px" viewBox="0 0 512 512" enable-background="new 0 0 512 512" xml:space="preserve">
<path d="M431,122h-37c-27,0-91,62-142,111c-73,70-141,137-195,137H23c-13,0-23-10-23-23s10-24,23-24h34c36,0,106-68,163-123
	c69-66,128-124,174-124h37l-38-38c-9-9-9-23,0-32s24-9,33,0l77,77c4,4,7,10,7,16s-3,13-7,17l-77,77c-5,5-10,7-16,7s-12-2-17-7
	c-9-9-9-24,0-33L431,122z"/>
<path d="M426,253l77,77c4,4,7,11,7,17s-3,12-7,16l-77,77c-5,5-10,7-16,7s-12-2-17-7c-9-9-9-24,0-33l38-37h-37c-36,0-70-27-122-75
	c-9-9-10-24-1-33s23-10,32-1c32,30,69,62,91,62h37l-38-37c-9-9-9-24,0-33S417,244,426,253z"/>
<path d="M23,122c-13,0-23-10-23-23s10-23,23-23h34c40,0,81,30,130,74c9,9,10,24,1,33c-5,5-11,7-17,7s-12-2-16-6c-32-29-71-62-98-62
	H23z"/>
</svg>
