<?xml version="1.0" encoding="utf-8"?>
<!-- Generator: Adobe Illustrator 16.0.4, SVG Export Plug-In . SVG Version: 6.00 Build 0)  -->
<!DOCTYPE svg PUBLIC "-//W3C//DTD SVG 1.1//EN" "http://www.w3.org/Graphics/SVG/1.1/DTD/svg11.dtd">
<svg version="1.1" id="Layer_1" xmlns="http://www.w3.org/2000/svg" xmlns:xlink="http://www.w3.org/1999/xlink" x="0px" y="0px"
	 width="512px" height="512px" viewBox="0 0 512 512" enable-background="new 0 0 512 512" xml:space="preserve">
<path d="M477,190.587c-14-14-27,0-27,0l-226,227c-35,35-74,50-107,41c-24-7-43-26-50-52c-9-35,4-74,38-108l238-237c22-22,52-14,70,4
	c20,20,23,46,2,67l-240,240c-29,29-50,8-21-21l155-155c7-7,7-20,0-27s-20-7-27,0l-155,155c-65,65,11,139,75,75l240-240
	c36-36,32-87-2-121c-31-31-85-43-124-4l-238,237c-43,43-60,96-47,145c10,39,39,69,77,79c9,3,18,3,28,3c38,0,79-18,115-54l226-227
	C477,217.587,491,204.587,477,190.587z"/>
</svg>
