<?xml version="1.0" encoding="utf-8"?>
<!-- Generator: Adobe Illustrator 16.0.4, SVG Export Plug-In . SVG Version: 6.00 Build 0)  -->
<!DOCTYPE svg PUBLIC "-//W3C//DTD SVG 1.1//EN" "http://www.w3.org/Graphics/SVG/1.1/DTD/svg11.dtd">
<svg version="1.1" id="Layer_1" xmlns="http://www.w3.org/2000/svg" xmlns:xlink="http://www.w3.org/1999/xlink" x="0px" y="0px"
	 width="512px" height="512px" viewBox="0 0 512 512" enable-background="new 0 0 512 512" xml:space="preserve">
<path d="M503,164c9,9,9,25,0,34l-84,84c-5,5-11,7-17,7s-12-2-17-7l-84-84c-9-9-9-25,0-34s25-9,34,0l47,47c-6-87-79-155-167-155
	c-92,0-167,75-167,167s75,167,167,167c34,0,67-10,95-29c11-8,26-5,34,6s4,26-7,34c-36,25-78,37-122,37C96,438,0,342,0,223
	S96,7,215,7c112,0,205,87,215,196l39-39C478,155,494,155,503,164z"/>
</svg>
