<?xml version="1.0" encoding="utf-8"?>
<!-- Generator: Adobe Illustrator 16.0.4, SVG Export Plug-In . SVG Version: 6.00 Build 0)  -->
<!DOCTYPE svg PUBLIC "-//W3C//DTD SVG 1.1//EN" "http://www.w3.org/Graphics/SVG/1.1/DTD/svg11.dtd">
<svg version="1.1" id="Layer_1" xmlns="http://www.w3.org/2000/svg" xmlns:xlink="http://www.w3.org/1999/xlink" x="0px" y="0px"
	 width="512px" height="512px" viewBox="0 0 512 512" enable-background="new 0 0 512 512" xml:space="preserve">
<g>
	<path d="M422,188c3-51-32-90-80-90c-16,0-31,4-45,12c-26-36-62-56-102-56s-77,20-99,53c-17,26-23,57-15,88c-60,26-76,76-70,113
		c7,48,46,83,92,83c2,0,179,1,287,1c71,0,107-50,110-96C503,254,480,205,422,188z M460,293c-2,29-25,59-70,59c-107,0-285-1-287-1
		c-30,0-49-25-53-49c-5-34,18-63,62-76c9-3,18-14,13-27c-24-58,22-105,70-105c32,0,60,20,79,55c6,11,22,15,32,5s23-16,36-16
		c31,0,46,28,38,61c-3,12,6,23,16,24C443,230,462,263,460,293z"/>
	<path d="M188,114c-41,4-54,37-52,58c1,9,8,16,17,16c11,0,19-9,18-19c0-4,0-18,20-20c10-1,17-9,16-19S198,113,188,114z"/>
</g>
</svg>
