<?xml version="1.0" encoding="utf-8"?>
<!-- Generator: Adobe Illustrator 16.0.4, SVG Export Plug-In . SVG Version: 6.00 Build 0)  -->
<!DOCTYPE svg PUBLIC "-//W3C//DTD SVG 1.1//EN" "http://www.w3.org/Graphics/SVG/1.1/DTD/svg11.dtd">
<svg version="1.1" id="Layer_1" xmlns="http://www.w3.org/2000/svg" xmlns:xlink="http://www.w3.org/1999/xlink" x="0px" y="0px"
	 width="512px" height="512px" viewBox="0 0 512 512" enable-background="new 0 0 512 512" xml:space="preserve">
<path d="M325,380c-6,0-13-2-18-7c-10-10-10-24,0-34l116-116L307,107c-10-10-10-24,0-34s25-10,35,0l133,133c5,5,7,10,7,17
	c0,6-2,12-7,17L342,373C337,378,331,380,325,380z"/>
<path d="M185,380c-6,0-12-2-17-7L35,240c-5-5-7-11-7-17c0-7,2-12,7-17L168,73c10-10,25-10,35,0s10,24,0,34L87,223l116,116
	c10,10,10,24,0,34C198,378,191,380,185,380z"/>
</svg>
