<?xml version="1.0" encoding="utf-8"?>
<!-- Generator: Adobe Illustrator 16.0.4, SVG Export Plug-In . SVG Version: 6.00 Build 0)  -->
<!DOCTYPE svg PUBLIC "-//W3C//DTD SVG 1.1//EN" "http://www.w3.org/Graphics/SVG/1.1/DTD/svg11.dtd">
<svg version="1.1" id="Layer_1" xmlns="http://www.w3.org/2000/svg" xmlns:xlink="http://www.w3.org/1999/xlink" x="0px" y="0px"
	 width="512px" height="512px" viewBox="0 0 512 512" enable-background="new 0 0 512 512" xml:space="preserve">
<g>
	<path d="M151,124c15,0,27-12,27-27V28c0-15-12-27-27-27s-27,12-27,27v69C124,112,136,124,151,124z"/>
	<path d="M359,124c15,0,27-12,27-27V28c0-15-12-27-27-27s-27,12-27,27v69C332,112,344,124,359,124z"/>
	<path d="M480,41h-50c-12,0-22,9-22,21s10,22,22,22h29v89H51V84h29c12,0,21-10,21-22s-9-21-21-21H29C17,41,8,50,8,62v361
		c0,12,9,22,21,22h451c12,0,22-10,22-22V62C502,50,492,41,480,41z M459,401H51V205h408V401z"/>
	<path d="M221,84h68c12,0,22-10,22-22s-10-21-22-21h-68c-12,0-22,9-22,21S209,84,221,84z"/>
</g>
</svg>
