<?xml version="1.0" encoding="utf-8"?>
<!-- Generator: Adobe Illustrator 16.0.4, SVG Export Plug-In . SVG Version: 6.00 Build 0)  -->
<!DOCTYPE svg PUBLIC "-//W3C//DTD SVG 1.1//EN" "http://www.w3.org/Graphics/SVG/1.1/DTD/svg11.dtd">
<svg version="1.1" id="Layer_1" xmlns="http://www.w3.org/2000/svg" xmlns:xlink="http://www.w3.org/1999/xlink" x="0px" y="0px"
	 width="512px" height="512px" viewBox="0 0 512 512" enable-background="new 0 0 512 512" xml:space="preserve">
<path d="M464,295c15,0,27,12,27,27v147c0,15-12,27-27,27H46c-15,0-28-12-28-27V322c0-15,13-27,28-27s27,12,27,27v119h364V322
	C437,307,449,295,464,295z"/>
<path d="M236,356L126,246c-11-11-11-27,0-38s27-11,38,0l64,63V37c0-15,12-27,27-27s27,12,27,27v234l63-63c11-11,28-11,39,0
	s11,27,0,38L274,356c-5,5-12,8-19,8S241,361,236,356z"/>
</svg>
