<?xml version="1.0" encoding="utf-8"?>
<!-- Generator: Adobe Illustrator 16.0.4, SVG Export Plug-In . SVG Version: 6.00 Build 0)  -->
<!DOCTYPE svg PUBLIC "-//W3C//DTD SVG 1.1//EN" "http://www.w3.org/Graphics/SVG/1.1/DTD/svg11.dtd">
<svg version="1.1" id="Layer_1" xmlns="http://www.w3.org/2000/svg" xmlns:xlink="http://www.w3.org/1999/xlink" x="0px" y="0px"
	 width="512px" height="512px" viewBox="0 0 512 512" enable-background="new 0 0 512 512" xml:space="preserve">
<path d="M420,230h-74V29c0-12-10-22-22-22H186c-12,0-22,10-22,22v201H90c-11,0-22,9-22,22c0,6,2,11,6,15l165,165c8,8,22,9,31,0
	l165-165C449,253,438,230,420,230z M255,386L142,274h44c12,0,22-10,22-22V51h94v201c0,12,10,22,22,22h43L255,386z"/>
</svg>
