<?xml version="1.0" encoding="utf-8"?>
<!-- Generator: Adobe Illustrator 16.0.4, SVG Export Plug-In . SVG Version: 6.00 Build 0)  -->
<!DOCTYPE svg PUBLIC "-//W3C//DTD SVG 1.1//EN" "http://www.w3.org/Graphics/SVG/1.1/DTD/svg11.dtd">
<svg version="1.1" id="Layer_1" xmlns="http://www.w3.org/2000/svg" xmlns:xlink="http://www.w3.org/1999/xlink" x="0px" y="0px"
	 width="512px" height="512px" viewBox="0 0 512 512" enable-background="new 0 0 512 512" xml:space="preserve">
<g>
	<path d="M506,212c-4-6-93-137-251-137S7,206,3,212c-5,7-5,15,0,22c4,6,94,137,252,137s247-131,251-137C511,227,511,219,506,212z
		 M255,331c-111,0-186-78-210-108c24-30,99-108,210-108s185,78,209,108C440,253,366,331,255,331z"/>
	<path d="M255,129c-20,0-40,7-56,19c-41,31-50,90-19,131c18,24,45,38,75,38c20,0,40-7,56-19c38-28,52-87,19-131
		C312,143,285,129,255,129z M255,287c-20,0-39-10-51-26c-21-28-15-68,13-89c11-8,24-13,38-13c20,0,39,10,51,26
		C338,227,306,287,255,287z"/>
	<path d="M276,181c-11,0-20,10-20,21s9,20,20,20s20-9,20-20S287,181,276,181z"/>
</g>
</svg>
