<?xml version="1.0" encoding="utf-8"?>
<!-- Generator: Adobe Illustrator 16.0.4, SVG Export Plug-In . SVG Version: 6.00 Build 0)  -->
<!DOCTYPE svg PUBLIC "-//W3C//DTD SVG 1.1//EN" "http://www.w3.org/Graphics/SVG/1.1/DTD/svg11.dtd">
<svg version="1.1" id="Layer_1" xmlns="http://www.w3.org/2000/svg" xmlns:xlink="http://www.w3.org/1999/xlink" x="0px" y="0px"
	 width="512px" height="512px" viewBox="0 0 512 512" enable-background="new 0 0 512 512" xml:space="preserve">
<path d="M307,439c-17,0-31-14-30-31c3-73-14-129-52-164c-60-56-151-46-152-46c-16,2-31-10-33-26s10-31,26-33c5-1,120-12,200,62
	c51,48,75,117,71,209C336,426,323,439,307,439z M43,368c0-39,31-71,70-71s71,32,71,71c0,38-32,70-71,70C75,438,43,407,43,368z
	 M439,439c-17,0-31-14-30-31c5-119-24-208-86-266C225,51,74,68,73,68c-16,2-31-10-33-26S50,10,66,8c7-1,180-20,298,90
	c76,70,111,175,105,312C468,426,455,439,439,439z"/>
</svg>
