<?xml version="1.0" encoding="utf-8"?>
<!-- Generator: Adobe Illustrator 16.0.4, SVG Export Plug-In . SVG Version: 6.00 Build 0)  -->
<!DOCTYPE svg PUBLIC "-//W3C//DTD SVG 1.1//EN" "http://www.w3.org/Graphics/SVG/1.1/DTD/svg11.dtd">
<svg version="1.1" id="Layer_1" xmlns="http://www.w3.org/2000/svg" xmlns:xlink="http://www.w3.org/1999/xlink" x="0px" y="0px"
	 width="512px" height="512px" viewBox="0 0 512 512" enable-background="new 0 0 512 512" xml:space="preserve">
<path d="M491,208L326,42c-14-14-37-2-37,16v75c-86,4-154,30-203,79c-74,74-74,172-74,176c0,11,9,22,22,22c8,0,15-4,19-11
	c43-76,154-87,217-87h19v76c0,18,23,29,37,15c0,0,158-157,165-164C499,231,500,217,491,208z M333,335v-43c0-11-9-21-20-22
	c-1,0-17-2-43-2c-54,0-139,8-201,51c23-62,83-143,242-143c12,0,22-10,22-22v-44l112,113L333,335z"/>
</svg>
