<?xml version="1.0" encoding="utf-8"?>
<!-- Generator: Adobe Illustrator 16.0.4, SVG Export Plug-In . SVG Version: 6.00 Build 0)  -->
<!DOCTYPE svg PUBLIC "-//W3C//DTD SVG 1.1//EN" "http://www.w3.org/Graphics/SVG/1.1/DTD/svg11.dtd">
<svg version="1.1" id="Layer_1" xmlns="http://www.w3.org/2000/svg" xmlns:xlink="http://www.w3.org/1999/xlink" x="0px" y="0px"
	 width="512px" height="512px" viewBox="0 0 512 512" enable-background="new 0 0 512 512" xml:space="preserve">
<g>
	<path d="M462,8H48C18,8,0,26,0,56v228c0,30,18,48,48,48h137v41l-48,40c-10,8-3,25,9,25h217c12,0,19-17,9-25l-49-40v-41h139
		c30,0,48-18,48-48V56C510,26,492,8,462,8z M324,410H184l24-19c3-3,5-7,5-11v-48h82v48c0,6,3,11,8,13L324,410z M482,284
		c0,15-5,20-20,20H48c-15,0-20-5-20-20V56c0-15,5-20,20-20h414c15,0,20,5,20,20V284z"/>
	<path d="M452,58H56c-5,0-9,5-9,10v204c0,5,4,9,9,9h396c5,0,9-4,9-9V68C461,63,457,58,452,58z M442,262H65V77h377V262z"/>
</g>
</svg>
