<?xml version="1.0" encoding="utf-8"?>
<!-- Generator: Adobe Illustrator 16.0.4, SVG Export Plug-In . SVG Version: 6.00 Build 0)  -->
<!DOCTYPE svg PUBLIC "-//W3C//DTD SVG 1.1//EN" "http://www.w3.org/Graphics/SVG/1.1/DTD/svg11.dtd">
<svg version="1.1" id="Layer_1" xmlns="http://www.w3.org/2000/svg" xmlns:xlink="http://www.w3.org/1999/xlink" x="0px" y="0px"
	 width="512px" height="512px" viewBox="0 0 512 512" enable-background="new 0 0 512 512" xml:space="preserve">
<g>
	<path d="M454,133c12-38-22-79-52-79c-14,0-33,8-44,14c-34-6-71-8-106-8c-49,0-85,5-100,8c-12-6-32-15-46-14c-28,2-62,41-50,79
		C43,163,0,271,0,338c0,30,23,54,53,54c22,0,44-12,63-34c15-17,41-49,54-66c17,4,49,9,88,9c29,0,56-3,82-9c13,17,39,49,54,66
		c19,22,41,34,63,34c30,0,53-23,53-54C510,270,467,163,454,133z M457,351c-10,0-22-7-33-19c-20-23-60-74-60-75c-4-5-10-8-16-8
		c-2,0-4,0-6,1c-26,8-54,11-84,11c-51,0-90-11-90-11c-8-2-17,0-22,7c0,1-40,52-60,75c-11,12-23,19-33,19c-8,0-13-5-13-13
		c0-69,55-195,56-196c2-5,3-12,0-17c-7-14,7-28,13-31c5,1,19,7,30,13c4,2,10,3,15,2c0,0,39-9,98-9c35,0,71,3,105,9c5,1,9,0,13-2
		c11-6,26-12,31-13c3,1,11,7,14,15c5,11-6,21-1,33c1,1,56,127,56,196C470,347,465,351,457,351z"/>
	<path d="M320,127c-15,0-28,13-28,28s13,28,28,28s28-13,28-28S335,127,320,127z"/>
	<path d="M377,171c-15,0-28,13-28,28s13,27,28,27s28-12,28-27S392,171,377,171z"/>
	<path d="M187,162h-17v-17c0-7-5-12-12-12s-13,5-13,12v17h-16c-7,0-13,5-13,12s6,13,13,13h16v16c0,7,6,13,13,13s12-6,12-13v-16h17
		c7,0,12-6,12-13S194,162,187,162z"/>
</g>
</svg>
