<?xml version="1.0" encoding="utf-8"?>
<!-- Generator: Adobe Illustrator 16.0.4, SVG Export Plug-In . SVG Version: 6.00 Build 0)  -->
<!DOCTYPE svg PUBLIC "-//W3C//DTD SVG 1.1//EN" "http://www.w3.org/Graphics/SVG/1.1/DTD/svg11.dtd">
<svg version="1.1" id="Layer_1" xmlns="http://www.w3.org/2000/svg" xmlns:xlink="http://www.w3.org/1999/xlink" x="0px" y="0px"
	 width="512px" height="512px" viewBox="0 0 512 512" enable-background="new 0 0 512 512" xml:space="preserve">
<g>
	<path d="M232,212V19c0-11-9-19-19-19C96,0,1,95,1,212c0,10,9,19,19,19h193C223,231,232,222,232,212z M194,193H40
		c9-81,73-145,154-154V193z"/>
	<path d="M283,34c-12,0-22,10-22,22v204H57c-12,0-22,10-22,22c0,126,107,228,238,228s238-107,238-238C511,143,406,34,283,34z
		 M273,466c-99,0-182-71-193-162h203c12,0,22-10,22-22V79c90,12,162,95,162,193C467,379,380,466,273,466z"/>
</g>
</svg>
