<?xml version="1.0" encoding="utf-8"?>
<!-- Generator: Adobe Illustrator 16.0.4, SVG Export Plug-In . SVG Version: 6.00 Build 0)  -->
<!DOCTYPE svg PUBLIC "-//W3C//DTD SVG 1.1//EN" "http://www.w3.org/Graphics/SVG/1.1/DTD/svg11.dtd">
<svg version="1.1" id="Layer_1" xmlns="http://www.w3.org/2000/svg" xmlns:xlink="http://www.w3.org/1999/xlink" x="0px" y="0px"
	 width="512px" height="512px" viewBox="0 0 512 512" enable-background="new 0 0 512 512" xml:space="preserve">
<g>
	<path d="M398,10c-21,0-38,17-38,38v412c0,21,17,38,38,38s38-17,38-38V48C436,27,419,10,398,10z"/>
	<path d="M255,146c-21,0-38,17-38,38v276c0,21,17,38,38,38s38-17,38-38V184C293,163,276,146,255,146z"/>
	<path d="M112,282c-21,0-38,17-38,38v140c0,21,17,38,38,38s38-17,38-38V320C150,299,133,282,112,282z"/>
</g>
</svg>
