<?xml version="1.0" encoding="utf-8"?>
<!-- Generator: Adobe Illustrator 16.0.4, SVG Export Plug-In . SVG Version: 6.00 Build 0)  -->
<!DOCTYPE svg PUBLIC "-//W3C//DTD SVG 1.1//EN" "http://www.w3.org/Graphics/SVG/1.1/DTD/svg11.dtd">
<svg version="1.1" id="Layer_1" xmlns="http://www.w3.org/2000/svg" xmlns:xlink="http://www.w3.org/1999/xlink" x="0px" y="0px"
	 width="512px" height="512px" viewBox="0 0 512 512" enable-background="new 0 0 512 512" xml:space="preserve">
<path d="M496,26c-14-9-32-4-41,10L314,266l-53-69c-13-17-38-16-49,2l-61,102l-28-37c-13-17-39-16-50,2L5,379c-11,19,1,45,25,45
	c10,0,20-5,26-14l45-75l28,38c13,17,39,16,50-2l61-103l53,69c13,17,38,15,49-2L506,67C515,53,510,35,496,26z"/>
</svg>
