<?xml version="1.0" encoding="utf-8"?>
<!-- Generator: Adobe Illustrator 16.0.4, SVG Export Plug-In . SVG Version: 6.00 Build 0)  -->
<!DOCTYPE svg PUBLIC "-//W3C//DTD SVG 1.1//EN" "http://www.w3.org/Graphics/SVG/1.1/DTD/svg11.dtd">
<svg version="1.1" id="Layer_1" xmlns="http://www.w3.org/2000/svg" xmlns:xlink="http://www.w3.org/1999/xlink" x="0px" y="0px"
	 width="512px" height="512px" viewBox="0 0 512 512" enable-background="new 0 0 512 512" xml:space="preserve">
<g>
	<path d="M423,70.007c-44-45-103-70-166-70c-130-1-236,104-237,234l-1,141c0,12,8,21,20,21h1c11,0,20-9,20-21l2-141
		c1-106,87-192,193-192c53,0,102,21,139,58c36,37,55,85,55,137l-1,141c0,12,9,21,21,21c11,0,21-10,21-21l1-141
		C491,174.007,467,115.007,423,70.007z"/>
	<path d="M331,239.007c-10,0-19,8-19,18l-1,234c0,10,8,19,18,19h1c72,0,92-45,92-69l1-132c0-2,0-19-12-36
		C400,258.007,377,239.007,331,239.007z M386,440.007c0,5-4,27-39,32l2-195c35,6,38,27,38,32L386,440.007z"/>
	<path d="M184,238.007h-1c-72,0-92,45-92,69l-1,131c0,2,0,20,12,37c11,15,34,34,80,34c10,0,18-8,18-18l2-235
		C202,246.007,194,238.007,184,238.007z M164,471.007c-35-6-38-27-38-32l1-132c0-5,4-26,39-31L164,471.007z"/>
</g>
</svg>
