<?xml version="1.0" encoding="utf-8"?>
<!-- Generator: Adobe Illustrator 16.0.4, SVG Export Plug-In . SVG Version: 6.00 Build 0)  -->
<!DOCTYPE svg PUBLIC "-//W3C//DTD SVG 1.1//EN" "http://www.w3.org/Graphics/SVG/1.1/DTD/svg11.dtd">
<svg version="1.1" id="Layer_1" xmlns="http://www.w3.org/2000/svg" xmlns:xlink="http://www.w3.org/1999/xlink" x="0px" y="0px"
	 width="512px" height="512px" viewBox="0 0 512 512" enable-background="new 0 0 512 512" xml:space="preserve">
<g>
	<path d="M490,116c-23-52-73-86-126-86c-54,0-89,24-109,50c-20-26-55-50-109-50C93,30,43,64,20,116C-4,170,7,229,49,276
		c101,113,190,193,191,194c4,4,10,6,15,6s10-2,14-6c1-1,91-81,192-194C503,229,514,170,490,116z M429,247c-76,84-145,151-174,178
		c-29-27-98-94-174-178c-30-34-38-75-21-113c16-36,50-60,86-60c70,0,86,52,88,58c2,10,11,16,21,16s19-6,21-16c1-2,16-58,88-58
		c36,0,70,24,86,60C467,172,459,213,429,247z"/>
	<path d="M363,97c-12-2-22,7-24,19s6,22,18,24c1,0,28,5,31,43c1,12,11,20,22,20c13,0,22-11,21-23C427,121,385,100,363,97z"/>
	<path d="M383,213c-12,0-21,10-21,22s9,21,21,21s22-9,22-21S395,213,383,213z"/>
</g>
</svg>
