<?xml version="1.0" encoding="utf-8"?>
<!-- Generator: Adobe Illustrator 16.0.4, SVG Export Plug-In . SVG Version: 6.00 Build 0)  -->
<!DOCTYPE svg PUBLIC "-//W3C//DTD SVG 1.1//EN" "http://www.w3.org/Graphics/SVG/1.1/DTD/svg11.dtd">
<svg version="1.1" id="Layer_1" xmlns="http://www.w3.org/2000/svg" xmlns:xlink="http://www.w3.org/1999/xlink" x="0px" y="0px"
	 width="512px" height="512px" viewBox="0 0 512 512" enable-background="new 0 0 512 512" xml:space="preserve">
<path d="M255,6C119,6,8,117,8,253s111,247,247,247s247-111,247-247S391,6,255,6z M359,78c31,18,55,44,73,75l-58,23
	c-10-16-24-29-39-40L359,78z M358,253c0,57-46,103-103,103s-104-46-104-103s47-104,104-104S358,196,358,253z M255,49
	c28,0,55,6,79,16l-23,58c-17-8-36-12-56-12c-18,0-36,4-52,10l-23-57C203,55,228,49,255,49z M155,75l23,59c-16,10-29,24-40,39l-58-24
	C98,118,124,93,155,75z M51,253c0-28,6-55,16-79l58,23c-8,17-12,36-12,56c0,18,4,36,10,52l-57,23C57,305,51,280,51,253z M151,428
	c-31-18-56-44-74-75l59-24c10,16,24,29,39,40L151,428z M255,457c-28,0-55-6-79-16l23-58c17,8,36,12,56,12c18,0,36-4,52-10l23,57
	C307,451,282,457,255,457z M355,430l-24-58c16-10,29-24,40-39l59,24C412,388,386,412,355,430z M385,309c8-17,12-36,12-56
	c0-18-4-36-10-52l57-23c9,23,15,48,15,75c0,28-6,55-16,79L385,309z"/>
</svg>
