<?xml version="1.0" encoding="utf-8"?>
<!-- Generator: Adobe Illustrator 16.0.4, SVG Export Plug-In . SVG Version: 6.00 Build 0)  -->
<!DOCTYPE svg PUBLIC "-//W3C//DTD SVG 1.1//EN" "http://www.w3.org/Graphics/SVG/1.1/DTD/svg11.dtd">
<svg version="1.1" id="Layer_1" xmlns="http://www.w3.org/2000/svg" xmlns:xlink="http://www.w3.org/1999/xlink" x="0px" y="0px"
	 width="512px" height="512px" viewBox="0 0 512 512" enable-background="new 0 0 512 512" xml:space="preserve">
<path d="M490,232c9,9,9,23,0,31c-4,4-9,6-15,6s-11-2-15-6L255,58L50,263c-8,9-22,9-31,0c-9-8-9-22,0-31L240,12c4-4,9-6,15-6
	s11,2,15,6L490,232z"/>
<path d="M407,247c12,0,21,10,21,22v209c0,12-9,22-21,22H307c-12,0-22-10-22-22V346h-61v132c0,12-9,22-21,22H103c-12,0-22-10-22-22
	V269c0-12,10-22,22-22s22,10,22,22v188h56V324c0-12,10-22,22-22h104c12,0,22,10,22,22v133h56V269C385,257,395,247,407,247z"/>
</svg>
