<?xml version="1.0" encoding="utf-8"?>
<!-- Generator: Adobe Illustrator 16.0.4, SVG Export Plug-In . SVG Version: 6.00 Build 0)  -->
<!DOCTYPE svg PUBLIC "-//W3C//DTD SVG 1.1//EN" "http://www.w3.org/Graphics/SVG/1.1/DTD/svg11.dtd">
<svg version="1.1" id="Layer_1" xmlns="http://www.w3.org/2000/svg" xmlns:xlink="http://www.w3.org/1999/xlink" x="0px" y="0px"
	 width="512px" height="512px" viewBox="0 0 512 512" enable-background="new 0 0 512 512" xml:space="preserve">
<g>
	<path d="M255,15C124,15,17,122,17,253s107,237,238,237s237-106,237-237S386,15,255,15z M255,447c-107,0-194-87-194-194
		S148,59,255,59s194,87,194,194S362,447,255,447z"/>
	<path d="M287,338l-20,9l26-133c3-14-12-29-28-20l-49,27c-9,5-12,17-7,26s17,12,26,7l12-6l-25,127c-2,11,7,23,19,23c3,0,6-1,8-2
		l53-23c10-4,14-15,10-25S297,334,287,338z"/>
	<path d="M274,158c15,0,27-12,27-27s-12-27-27-27s-27,12-27,27S259,158,274,158z"/>
</g>
</svg>
