<?xml version="1.0" encoding="utf-8"?>
<!-- Generator: Adobe Illustrator 16.0.4, SVG Export Plug-In . SVG Version: 6.00 Build 0)  -->
<!DOCTYPE svg PUBLIC "-//W3C//DTD SVG 1.1//EN" "http://www.w3.org/Graphics/SVG/1.1/DTD/svg11.dtd">
<svg version="1.1" id="Layer_1" xmlns="http://www.w3.org/2000/svg" xmlns:xlink="http://www.w3.org/1999/xlink" x="0px" y="0px"
	 width="512px" height="512px" viewBox="0 0 512 512" enable-background="new 0 0 512 512" xml:space="preserve">
<path d="M59,71h392c14,0,24-11,24-25s-10-24-24-24H59c-14,0-25,10-25,24S45,71,59,71z"/>
<path d="M255,375H60c-14,0-24,10-24,24s10,25,24,25h195c14,0,24-11,24-25S269,375,255,375z"/>
<path d="M451,257H59c-14,0-25,11-25,25s11,24,25,24h392c14,0,24-10,24-24S465,257,451,257z"/>
<path d="M451,140H59c-14,0-25,10-25,24s11,25,25,25h392c14,0,24-11,24-25S465,140,451,140z"/>
</svg>
