<?xml version="1.0" encoding="utf-8"?>
<!-- Generator: Adobe Illustrator 16.0.4, SVG Export Plug-In . SVG Version: 6.00 Build 0)  -->
<!DOCTYPE svg PUBLIC "-//W3C//DTD SVG 1.1//EN" "http://www.w3.org/Graphics/SVG/1.1/DTD/svg11.dtd">
<svg version="1.1" id="Layer_1" xmlns="http://www.w3.org/2000/svg" xmlns:xlink="http://www.w3.org/1999/xlink" x="0px" y="0px"
	 width="512px" height="512px" viewBox="0 0 512 512" enable-background="new 0 0 512 512" xml:space="preserve">
<path d="M255,3c14,0,24,10,24,24v94c0,14-10,25-24,25s-25-11-25-25V27C230,13,241,3,255,3z"/>
<path d="M142,56l55,76c12,16,0,39-20,39c-8,0-14-3-19-10l-55-76c-8-11-6-26,5-34S134,45,142,56z"/>
<path d="M33,207c-13-4-20-18-16-31s18-20,31-16l89,29c13,4,20,18,16,31c-3,10-14,17-24,17c-3,0-4-1-7-2L33,207z"/>
<path d="M153,286c4,13-3,27-16,31l-89,29c-3,1-5,1-8,1c-10,0-20-7-23-17c-4-13,3-27,16-31l89-29C135,266,149,273,153,286z"/>
<path d="M192,340c11,8,13,23,5,34l-55,76c-5,7-12,10-20,10c-20,0-31-23-19-39l55-76C166,334,181,332,192,340z"/>
<path d="M255,360c14,0,24,11,24,25v93c0,14-10,25-24,25s-25-11-25-25v-93C230,371,241,360,255,360z"/>
<path d="M352,345l55,76c12,16,0,39-20,39c-8,0-14-3-19-10l-55-76c-8-11-6-26,5-34S344,334,352,345z"/>
<path d="M477,299c13,4,20,18,16,31c-3,10-14,17-24,17c-3,0-4,0-7-1l-89-29c-13-4-20-18-16-31s18-20,31-16L477,299z"/>
<path d="M357,220c-4-13,3-27,16-31l89-29c13-4,27,3,31,16s-3,27-16,31l-89,28c-3,1-5,2-8,2C370,237,360,230,357,220z"/>
<path d="M332,171c-20,0-31-23-19-39l55-76c8-11,23-13,34-5s13,23,5,34l-55,76C347,168,340,171,332,171z"/>
</svg>
