<?xml version="1.0" encoding="utf-8"?>
<!-- Generator: Adobe Illustrator 16.0.4, SVG Export Plug-In . SVG Version: 6.00 Build 0)  -->
<!DOCTYPE svg PUBLIC "-//W3C//DTD SVG 1.1//EN" "http://www.w3.org/Graphics/SVG/1.1/DTD/svg11.dtd">
<svg version="1.1" id="Layer_1" xmlns="http://www.w3.org/2000/svg" xmlns:xlink="http://www.w3.org/1999/xlink" x="0px" y="0px"
	 width="512px" height="512px" viewBox="0 0 512 512" enable-background="new 0 0 512 512" xml:space="preserve">
<g>
	<path d="M255,8C178,8,88,54,88,182c0,124,146,269,152,275c4,4,9,7,15,7s11-3,15-7c6-6,152-151,152-275C422,54,332,8,255,8z
		 M255,410c-36-39-123-143-123-228c0-121,94-130,123-130s123,9,123,130C378,267,291,371,255,410z"/>
	<path d="M255,88c-47,0-86,39-86,86c0,48,39,86,86,86s86-38,86-86S302,88,255,88z M255,228c-29,0-54-25-54-54s25-53,54-53
		s53,24,53,53S284,228,255,228z"/>
</g>
</svg>
