<?xml version="1.0" encoding="utf-8"?>
<!-- Generator: Adobe Illustrator 16.0.4, SVG Export Plug-In . SVG Version: 6.00 Build 0)  -->
<!DOCTYPE svg PUBLIC "-//W3C//DTD SVG 1.1//EN" "http://www.w3.org/Graphics/SVG/1.1/DTD/svg11.dtd">
<svg version="1.1" id="Layer_1" xmlns="http://www.w3.org/2000/svg" xmlns:xlink="http://www.w3.org/1999/xlink" x="0px" y="0px"
	 width="512px" height="512px" viewBox="0 0 512 512" enable-background="new 0 0 512 512" xml:space="preserve">
<g>
	<path d="M406,181h-12c0-34-5-95-42-136c-24-27-57-40-97-40s-73,13-97,40c-37,41-42,102-42,136h-13c-12,0-21,9-21,21v275
		c0,12,9,22,21,22h303c12,0,22-10,22-22V202C428,190,418,181,406,181z M191,74c15-17,36-26,64-26s49,9,64,26c27,30,31,80,31,107H160
		C160,154,164,104,191,74z M385,456H125V224h260V456z"/>
	<path d="M216,410h78c7,0,14-7,11-15l-22-55c4-6,10-18,10-29c0-20-14-41-38-41s-37,21-37,41c0,11,6,23,10,29l-22,55
		C203,403,209,410,216,410z M248,331c-2-3-8-13-8-20c0,0,0-20,15-20s16,20,16,20c0,7-6,17-8,20s-3,7-2,11l18,46h-47l18-46
		C251,338,251,334,248,331z"/>
</g>
</svg>
