<?xml version="1.0" encoding="utf-8"?>
<!-- Generator: Adobe Illustrator 16.0.4, SVG Export Plug-In . SVG Version: 6.00 Build 0)  -->
<!DOCTYPE svg PUBLIC "-//W3C//DTD SVG 1.1//EN" "http://www.w3.org/Graphics/SVG/1.1/DTD/svg11.dtd">
<svg version="1.1" id="Layer_1" xmlns="http://www.w3.org/2000/svg" xmlns:xlink="http://www.w3.org/1999/xlink" x="0px" y="0px"
	 width="512px" height="512px" viewBox="0 0 512 512" enable-background="new 0 0 512 512" xml:space="preserve">
<path d="M449,107c14,0,25,11,25,25v264c0,14-11,24-25,24H61c-14,0-25-10-25-24V132c0-14,11-25,25-25h154l-40-40c-10-10-10-24,0-34
	s25-10,35,0l81,81c5,5,7,12,7,18c0,7-2,12-7,17l-81,82c-5,5-12,7-18,7s-12-2-17-7c-10-10-10-25,0-35l40-40H85v215h340V156h-59
	c-14,0-24-10-24-24s10-25,24-25H449z"/>
</svg>
