<?xml version="1.0" encoding="utf-8"?>
<!-- Generator: Adobe Illustrator 16.0.4, SVG Export Plug-In . SVG Version: 6.00 Build 0)  -->
<!DOCTYPE svg PUBLIC "-//W3C//DTD SVG 1.1//EN" "http://www.w3.org/Graphics/SVG/1.1/DTD/svg11.dtd">
<svg version="1.1" id="Layer_1" xmlns="http://www.w3.org/2000/svg" xmlns:xlink="http://www.w3.org/1999/xlink" x="0px" y="0px"
	 width="512px" height="512px" viewBox="0 0 512 512" enable-background="new 0 0 512 512" xml:space="preserve">
<path d="M488,61L376,9c-2-1-5-1-8-1s-6,0-8,1L255,58L150,9c-2-1-5-1-8-1s-6,0-8,1L21,61c-7,3-11,11-11,18v340c0,10,8,19,19,19
	c3,0,5-1,8-2l105-48l105,48c2,1,5,2,8,2s6-1,8-2l105-48l104,48c3,1,5,2,8,2c11,0,19-9,19-19V79C499,72,495,64,488,61z M123,355
	l-75,34V91l75-35V355z M236,389l-75-34V56l75,35V389z M349,355l-75,34V91l75-35V355z M461,389l-74-34V56l74,35V389z"/>
</svg>
