<?xml version="1.0" encoding="utf-8"?>
<!-- Generator: Adobe Illustrator 16.0.4, SVG Export Plug-In . SVG Version: 6.00 Build 0)  -->
<!DOCTYPE svg PUBLIC "-//W3C//DTD SVG 1.1//EN" "http://www.w3.org/Graphics/SVG/1.1/DTD/svg11.dtd">
<svg version="1.1" id="Layer_1" xmlns="http://www.w3.org/2000/svg" xmlns:xlink="http://www.w3.org/1999/xlink" x="0px" y="0px"
	 width="512px" height="512px" viewBox="0 0 512 512" enable-background="new 0 0 512 512" xml:space="preserve">
<g>
	<path d="M220,341l68,1h1c24,0,48-24,48-48l2-245c0-24-24-48-48-48l-68-1c-24,0-49,24-49,48l-2,244C172,316,196,341,220,341z
		 M214,49c0-3,7-9,9-9l67,1c3,0,9,6,9,8l-2,244c0,3-6,7-9,8h-67c-3,0-9-6-9-8L214,49z"/>
	<path d="M360,475l-89-1v-50c0-10-7-18-17-18s-18,8-18,18v50l-90-1c-10,0-18,7-18,17s8,18,18,18c71,1,143,1,214,2c10,0,18-8,18-18
		S370,475,360,475z"/>
	<path d="M377,161h-1c-10,0-17,7-17,17l-1,150c0,18-15,33-33,33l-142-1c-18,0-32-15-32-33l1-150c0-10-7-18-17-18s-18,7-18,17l-1,150
		c0,37,30,69,67,69l141,1h1c37,0,68-30,68-67l1-151C394,168,387,161,377,161z"/>
</g>
</svg>
