<?xml version="1.0" encoding="utf-8"?>
<!-- Generator: Adobe Illustrator 16.0.4, SVG Export Plug-In . SVG Version: 6.00 Build 0)  -->
<!DOCTYPE svg PUBLIC "-//W3C//DTD SVG 1.1//EN" "http://www.w3.org/Graphics/SVG/1.1/DTD/svg11.dtd">
<svg version="1.1" id="Layer_1" xmlns="http://www.w3.org/2000/svg" xmlns:xlink="http://www.w3.org/1999/xlink" x="0px" y="0px"
	 width="512px" height="512px" viewBox="0 0 512 512" enable-background="new 0 0 512 512" xml:space="preserve">
<g>
	<path d="M463,76H46C20,76,3,94,3,121v204c0,27,17,44,43,44h417c26,0,44-17,44-44V121C507,94,489,76,463,76z M474,325
		c0,10-4,12-11,12H46c-7,0-10-2-10-12V121c0-11,4-12,10-12h417c6,0,11,1,11,12V325z"/>
	<path d="M437,125H127c-6,0-11,5-11,11v173c0,6,5,11,11,11h310c6,0,11-5,11-11V136C448,130,443,125,437,125z M426,299H138V147h288
		V299z"/>
	<path d="M77,198c-13,0-24,12-24,25s11,24,24,24s25-11,25-24S90,198,77,198z"/>
</g>
</svg>
