<?xml version="1.0" encoding="utf-8"?>
<!-- Generator: Adobe Illustrator 16.0.4, SVG Export Plug-In . SVG Version: 6.00 Build 0)  -->
<!DOCTYPE svg PUBLIC "-//W3C//DTD SVG 1.1//EN" "http://www.w3.org/Graphics/SVG/1.1/DTD/svg11.dtd">
<svg version="1.1" id="Layer_1" xmlns="http://www.w3.org/2000/svg" xmlns:xlink="http://www.w3.org/1999/xlink" x="0px" y="0px"
	 width="512px" height="512px" viewBox="0 0 512 512" enable-background="new 0 0 512 512" xml:space="preserve">
<g>
	<path d="M357,0H153c-27,0-45,17-45,43v417c0,26,18,44,45,44h204c27,0,44-18,44-44V43C401,17,384,0,357,0z M369,460c0,7-2,11-12,11
		H153c-11,0-12-5-12-11V43c0-6,1-10,12-10h204c10,0,12,3,12,10V460z"/>
	<path d="M341,59H168c-6,0-11,5-11,11v310c0,6,5,11,11,11h173c6,0,11-5,11-11V70C352,64,347,59,341,59z M331,369H179V81h152V369z"/>
	<path d="M255,405c-13,0-25,12-25,25s12,24,25,24s24-11,24-24S268,405,255,405z"/>
</g>
</svg>
