<?xml version="1.0" encoding="utf-8"?>
<!-- Generator: Adobe Illustrator 16.0.4, SVG Export Plug-In . SVG Version: 6.00 Build 0)  -->
<!DOCTYPE svg PUBLIC "-//W3C//DTD SVG 1.1//EN" "http://www.w3.org/Graphics/SVG/1.1/DTD/svg11.dtd">
<svg version="1.1" id="Layer_1" xmlns="http://www.w3.org/2000/svg" xmlns:xlink="http://www.w3.org/1999/xlink" x="0px" y="0px"
	 width="512px" height="512px" viewBox="0 0 512 512" enable-background="new 0 0 512 512" xml:space="preserve">
<g>
	<path d="M418,21L183,206c-5,4-8,10-8,17s3,13,8,17l235,185c4,3,8,5,13,5c13,0,22-11,22-22V38C453,22,434,9,418,21z M409,363
		L232,223L409,83V363z"/>
	<path d="M81,22c-14,0-24,11-24,25v356c0,14,10,25,24,25s25-11,25-25V47C106,33,95,22,81,22z"/>
</g>
</svg>
