<?xml version="1.0" encoding="utf-8"?>
<!-- Generator: Adobe Illustrator 16.0.4, SVG Export Plug-In . SVG Version: 6.00 Build 0)  -->
<!DOCTYPE svg PUBLIC "-//W3C//DTD SVG 1.1//EN" "http://www.w3.org/Graphics/SVG/1.1/DTD/svg11.dtd">
<svg version="1.1" id="Layer_1" xmlns="http://www.w3.org/2000/svg" xmlns:xlink="http://www.w3.org/1999/xlink" x="0px" y="0px"
	 width="512px" height="512px" viewBox="0 0 512 512" enable-background="new 0 0 512 512" xml:space="preserve">
<path d="M433,142L313,22c-4-4-9-7-15-7H92c-12,0-22,10-22,22v432c0,12,10,21,22,21h326c12,0,22-9,22-21V157C440,151,437,146,433,142
	z M396,447H114V59h129v129c0,12,10,22,22,22h131V447z M287,166V59h2l107,107H287z"/>
</svg>
