<?xml version="1.0" encoding="utf-8"?>
<!-- Generator: Adobe Illustrator 16.0.4, SVG Export Plug-In . SVG Version: 6.00 Build 0)  -->
<!DOCTYPE svg PUBLIC "-//W3C//DTD SVG 1.1//EN" "http://www.w3.org/Graphics/SVG/1.1/DTD/svg11.dtd">
<svg version="1.1" id="Layer_1" xmlns="http://www.w3.org/2000/svg" xmlns:xlink="http://www.w3.org/1999/xlink" x="0px" y="0px"
	 width="512px" height="512px" viewBox="0 0 512 512" enable-background="new 0 0 512 512" xml:space="preserve">
<g>
	<path d="M328,206L94,21C78,9,59,22,59,38v370c0,11,9,22,22,22c5,0,9-2,13-5l234-185c5-4,9-10,9-17S333,210,328,206z M102,363V83
		l178,140L102,363z"/>
	<path d="M427,22c-14,0-25,11-25,25v356c0,14,11,25,25,25s24-11,24-25V47C451,33,441,22,427,22z"/>
</g>
</svg>
