<?xml version="1.0" encoding="utf-8"?>
<!-- Generator: Adobe Illustrator 16.0.4, SVG Export Plug-In . SVG Version: 6.00 Build 0)  -->
<!DOCTYPE svg PUBLIC "-//W3C//DTD SVG 1.1//EN" "http://www.w3.org/Graphics/SVG/1.1/DTD/svg11.dtd">
<svg version="1.1" id="Layer_1" xmlns="http://www.w3.org/2000/svg" xmlns:xlink="http://www.w3.org/1999/xlink" x="0px" y="0px"
	 width="512px" height="512px" viewBox="0 0 512 512" enable-background="new 0 0 512 512" xml:space="preserve">
<path d="M473,6L186,67c-10,2-17,11-17,21l-2,257c-16-10-35-15-56-15h-1c-55,0-99,37-99,84s44,86,99,86h1c55,0,99-37,99-84l2-224
	l243-52l-1,144c-16-10-35-15-56-15h-1c-55,0-100,37-100,84s44,86,99,86h1c50,0,92-32,99-74c1-2,1-4,1-6l2-331C499,15,487,3,473,6z
	 M111,457h-1c-31,0-56-19-56-42s25-42,56-42h1c31,0,56,19,56,42S142,457,111,457z M397,395c-31,0-56-19-56-42s25-41,56-41
	s56,19,56,42S428,395,397,395z M455,107l-243,52l1-53l243-52L455,107z"/>
</svg>
