<?xml version="1.0" encoding="utf-8"?>
<!-- Generator: Adobe Illustrator 16.0.4, SVG Export Plug-In . SVG Version: 6.00 Build 0)  -->
<!DOCTYPE svg PUBLIC "-//W3C//DTD SVG 1.1//EN" "http://www.w3.org/Graphics/SVG/1.1/DTD/svg11.dtd">
<svg version="1.1" id="Layer_1" xmlns="http://www.w3.org/2000/svg" xmlns:xlink="http://www.w3.org/1999/xlink" x="0px" y="0px"
	 width="512px" height="512px" viewBox="0 0 512 512" enable-background="new 0 0 512 512" xml:space="preserve">
<g>
	<path d="M406,182H160c0-30,6-79,31-107c15-17,36-26,64-26c41,0,68,19,83,58c4,11,17,17,28,13s17-18,13-29C358,35,315,6,255,6
		c-40,0-73,13-97,40c-37,41-42,102-42,136h-13c-12,0-21,9-21,21v275c0,12,9,22,21,22h303c12,0,22-10,22-22V203
		C428,191,418,182,406,182z M385,457H125V225h260V457z"/>
	<path d="M216,411h78c7,0,14-7,11-15l-22-55c4-6,10-18,10-29c0-20-14-41-38-41s-37,21-37,41c0,11,6,23,10,29l-22,55
		C203,404,209,411,216,411z M248,332c-2-3-8-13-8-20c0,0,0-20,15-20s16,20,16,20c0,7-6,17-8,20s-3,7-2,11l18,46h-47l18-46
		C251,339,251,335,248,332z"/>
</g>
</svg>
