<?xml version="1.0" encoding="utf-8"?>
<!-- Generator: Adobe Illustrator 16.0.4, SVG Export Plug-In . SVG Version: 6.00 Build 0)  -->
<!DOCTYPE svg PUBLIC "-//W3C//DTD SVG 1.1//EN" "http://www.w3.org/Graphics/SVG/1.1/DTD/svg11.dtd">
<svg version="1.1" id="Layer_1" xmlns="http://www.w3.org/2000/svg" xmlns:xlink="http://www.w3.org/1999/xlink" x="0px" y="0px"
	 width="512px" height="512px" viewBox="0 0 512 512" enable-background="new 0 0 512 512" xml:space="preserve">
<path d="M490,170h-27v-54c0-11-9-20-20-20H248l-26-42c-4-6-9-10-16-10H61c-11,0-19,9-19,20v106H20c-12,0-23,11-20,24l42,192
	c2,9,10,16,19,16h382c9,0,18-6,20-15l46-193C512,181,502,170,490,170z M81,83h113l26,43c4,6,10,9,17,9h187v35H81V83z M428,362H77
	L44,209h421L428,362z"/>
</svg>
