<?xml version="1.0" encoding="utf-8"?>
<!-- Generator: Adobe Illustrator 16.0.4, SVG Export Plug-In . SVG Version: 6.00 Build 0)  -->
<!DOCTYPE svg PUBLIC "-//W3C//DTD SVG 1.1//EN" "http://www.w3.org/Graphics/SVG/1.1/DTD/svg11.dtd">
<svg version="1.1" id="Layer_1" xmlns="http://www.w3.org/2000/svg" xmlns:xlink="http://www.w3.org/1999/xlink" x="0px" y="0px"
	 width="512px" height="512px" viewBox="0 0 512 512" enable-background="new 0 0 512 512" xml:space="preserve">
<g>
	<path d="M477,83H165c-6,0-11,2-15,6L18,206c-5,4-8,10-8,17s3,13,8,17l132,117c4,4,9,5,15,5h312c13,0,23-10,23-23V107
		C500,94,490,83,477,83z M454,316H174L68,223l106-93h280V316z"/>
	<path d="M141,223c0,18,15,33,33,33s34-15,34-33s-16-33-34-33S141,205,141,223z"/>
</g>
</svg>
