<?xml version="1.0" encoding="utf-8"?>
<!-- Generator: Adobe Illustrator 16.0.4, SVG Export Plug-In . SVG Version: 6.00 Build 0)  -->
<!DOCTYPE svg PUBLIC "-//W3C//DTD SVG 1.1//EN" "http://www.w3.org/Graphics/SVG/1.1/DTD/svg11.dtd">
<svg version="1.1" id="Layer_1" xmlns="http://www.w3.org/2000/svg" xmlns:xlink="http://www.w3.org/1999/xlink" x="0px" y="0px"
	 width="512px" height="512px" viewBox="0 0 512 512" enable-background="new 0 0 512 512" xml:space="preserve">
<path d="M435,178L271,14c-8-8-22-10-31-1L74,178c-14,14-2,38,16,38h74v201c0,12,10,22,22,22h138c12,0,22-10,22-22V216h74
	c11,0,22-9,22-22C442,188,439,182,435,178z M324,172c-12,0-22,10-22,22v201h-94V194c0-12-10-22-22-22h-44L255,60l112,112H324z"/>
</svg>
