<?xml version="1.0" encoding="utf-8"?>
<!-- Generator: Adobe Illustrator 16.0.4, SVG Export Plug-In . SVG Version: 6.00 Build 0)  -->
<!DOCTYPE svg PUBLIC "-//W3C//DTD SVG 1.1//EN" "http://www.w3.org/Graphics/SVG/1.1/DTD/svg11.dtd">
<svg version="1.1" id="Layer_1" xmlns="http://www.w3.org/2000/svg" xmlns:xlink="http://www.w3.org/1999/xlink" x="0px" y="0px"
	 width="512px" height="512px" viewBox="0 0 512 512" enable-background="new 0 0 512 512" xml:space="preserve">
<g>
	<path d="M480,116h-82l-23-84c-3-9-11-16-21-16H156c-10,0-18,7-21,16l-23,84H29c-12,0-21,10-21,22v270c0,12,9,22,21,22h451
		c12,0,22-10,22-22V138C502,126,492,116,480,116z M459,386H51V159h77c10,0,18-7,21-16l23-83h165l23,83c3,9,11,16,21,16h78V386z"/>
	<path d="M255,122c-68,0-124,55-124,123s56,124,124,124s123-56,123-124S323,122,255,122z M255,325c-44,0-80-36-80-80s36-80,80-80
		s80,36,80,80S299,325,255,325z"/>
	<path d="M277,185c-11-5-24,0-29,11s1,24,12,29c0,0,17,7,15,20s7,25,21,25c11,0,21-8,22-19C323,215,294,193,277,185z"/>
	<path d="M258,267c-12,0-22,9-22,21s10,22,22,22s22-10,22-22S270,267,258,267z"/>
</g>
</svg>
