<?xml version="1.0" encoding="utf-8"?>
<!-- Generator: Adobe Illustrator 16.0.4, SVG Export Plug-In . SVG Version: 6.00 Build 0)  -->
<!DOCTYPE svg PUBLIC "-//W3C//DTD SVG 1.1//EN" "http://www.w3.org/Graphics/SVG/1.1/DTD/svg11.dtd">
<svg version="1.1" id="Layer_1" xmlns="http://www.w3.org/2000/svg" xmlns:xlink="http://www.w3.org/1999/xlink" x="0px" y="0px"
	 width="512px" height="512px" viewBox="0 0 512 512" enable-background="new 0 0 512 512" xml:space="preserve">
<g>
	<path d="M488,91H377V25c0-7-7-14-14-14H147c-7,0-14,7-14,14v66H22c-12,0-22,10-22,22v254c0,12,10,21,22,21h84l-13,88
		c-2,10,7,19,16,19h292c9,0,16-8,16-17v-4l-14-86h85c12,0,22-9,22-21V113C510,101,500,91,488,91z M160,38h190v53H160V38z M128,462
		l22-144h210l22,144H128z M467,345h-70l-7-46c-1-8-8-14-16-14H136c-8,0-15,6-16,14l-7,46H43V134h424V345z"/>
	<path d="M118,206h52c9,0,16-7,16-16s-7-16-16-16h-52c-9,0-16,7-16,16S109,206,118,206z"/>
</g>
</svg>
