<?xml version="1.0" encoding="utf-8"?>
<!-- Generator: Adobe Illustrator 16.0.4, SVG Export Plug-In . SVG Version: 6.00 Build 0)  -->
<!DOCTYPE svg PUBLIC "-//W3C//DTD SVG 1.1//EN" "http://www.w3.org/Graphics/SVG/1.1/DTD/svg11.dtd">
<svg version="1.1" id="Layer_1" xmlns="http://www.w3.org/2000/svg" xmlns:xlink="http://www.w3.org/1999/xlink" x="0px" y="0px"
	 width="512px" height="512px" viewBox="0 0 512 512" enable-background="new 0 0 512 512" xml:space="preserve">
<g>
	<path d="M255,5C124,5,17,112,17,243s107,237,238,237s237-106,237-237S386,5,255,5z M255,437c-107,0-194-87-194-194S148,49,255,49
		s194,87,194,194S362,437,255,437z"/>
	<path d="M253,94c-80,0-98,59-98,82c0,12,10,21,22,21s22-9,22-21c0-9,5-39,54-39c24,0,42,7,53,19c14,15,13,35,12,43
		c-3,23-15,35-38,35c-40,0-49,22-49,40v18c0,12,10,22,22,22s22-10,22-22v-14c1,0,3-1,5-1c35,0,75-19,81-73c3-29-4-57-22-77
		C326,112,299,94,253,94z"/>
	<path d="M253,336c-15,0-27,12-27,27s12,27,27,27s27-12,27-27S268,336,253,336z"/>
</g>
</svg>
