<?xml version="1.0" encoding="utf-8"?>
<!-- Generator: Adobe Illustrator 16.0.4, SVG Export Plug-In . SVG Version: 6.00 Build 0)  -->
<!DOCTYPE svg PUBLIC "-//W3C//DTD SVG 1.1//EN" "http://www.w3.org/Graphics/SVG/1.1/DTD/svg11.dtd">
<svg version="1.1" id="Layer_1" xmlns="http://www.w3.org/2000/svg" xmlns:xlink="http://www.w3.org/1999/xlink" x="0px" y="0px"
	 width="512px" height="512px" viewBox="0 0 512 512" enable-background="new 0 0 512 512" xml:space="preserve">
<path d="M397,214c-41-41-99-64-171-67V84c0-15-19-25-31-13L56,210c-8,8-7,20,0,26l139,139c12,12,31,2,31-13v-64h16
	c53,0,147,9,183,73c3,6,10,9,16,9c11,0,18-9,18-18C459,359,459,276,397,214z M242,261c-22,0-35,2-36,2c-9,1-17,9-17,18v37l-94-95
	l94-95v37c0,10,9,18,19,18c134,0,184,69,203,121C359,268,287,261,242,261z"/>
</svg>
