<?xml version="1.0" encoding="utf-8"?>
<!-- Generator: Adobe Illustrator 16.0.4, SVG Export Plug-In . SVG Version: 6.00 Build 0)  -->
<!DOCTYPE svg PUBLIC "-//W3C//DTD SVG 1.1//EN" "http://www.w3.org/Graphics/SVG/1.1/DTD/svg11.dtd">
<svg version="1.1" id="Layer_1" xmlns="http://www.w3.org/2000/svg" xmlns:xlink="http://www.w3.org/1999/xlink" x="0px" y="0px"
	 width="512px" height="512px" viewBox="0 0 512 512" enable-background="new 0 0 512 512" xml:space="preserve">
<g>
	<path d="M447,214c-41-41-99-64-171-67V84c0-15-19-25-31-13L106,210c-8,8-7,20,0,26l139,139c12,12,31,2,31-13v-64h17
		c53,0,147,9,183,73c3,6,9,9,15,9c11,0,19-9,19-18C510,359,509,276,447,214z M293,261c-22,0-36,2-37,2c-9,1-16,9-16,18v37l-95-95
		l95-95v37c0,10,8,18,18,18c134,0,185,69,204,121C410,268,338,261,293,261z"/>
	<path d="M44,223L170,97c7-7,7-19,0-26s-19-7-26,0L5,210c-4,4-5,8-5,13s1,9,5,13l139,139c7,7,19,7,26,0s7-19,0-26L44,223z"/>
</g>
</svg>
