<?xml version="1.0" encoding="utf-8"?>
<!-- Generator: Adobe Illustrator 16.0.4, SVG Export Plug-In . SVG Version: 6.00 Build 0)  -->
<!DOCTYPE svg PUBLIC "-//W3C//DTD SVG 1.1//EN" "http://www.w3.org/Graphics/SVG/1.1/DTD/svg11.dtd">
<svg version="1.1" id="Layer_1" xmlns="http://www.w3.org/2000/svg" xmlns:xlink="http://www.w3.org/1999/xlink" x="0px" y="0px"
	 width="512px" height="512px" viewBox="0 0 512 512" enable-background="new 0 0 512 512" xml:space="preserve">
<path d="M466,107H103l40-40c10-10,10-24,0-34s-24-10-34,0l-82,81c-5,5-7,11-7,18c0,6,2,12,7,17l82,82c5,5,11,7,17,7s12-2,17-7
	c10-10,10-25,0-35l-40-40h338v215H77c-14,0-24,11-24,25s10,24,24,24h389c14,0,24-10,24-24V132C490,118,480,107,466,107z"/>
</svg>
