<?xml version="1.0" encoding="utf-8"?>
<!-- Generator: Adobe Illustrator 16.0.4, SVG Export Plug-In . SVG Version: 6.00 Build 0)  -->
<!DOCTYPE svg PUBLIC "-//W3C//DTD SVG 1.1//EN" "http://www.w3.org/Graphics/SVG/1.1/DTD/svg11.dtd">
<svg version="1.1" id="Layer_1" xmlns="http://www.w3.org/2000/svg" xmlns:xlink="http://www.w3.org/1999/xlink" x="0px" y="0px"
	 width="512px" height="512px" viewBox="0 0 512 512" enable-background="new 0 0 512 512" xml:space="preserve">
<g>
	<path d="M315,4c-86,0-156,70-156,156c0,36,11,69,31,95L45,400c-10,10-10,25,0,35c5,5,11,7,17,7s13-2,18-7l146-146
		c25,18,56,28,89,28c86,0,157-71,157-157S401,4,315,4z M315,273c-62,0-113-51-113-113S253,47,315,47s113,51,113,113S377,273,315,273
		z"/>
	<path d="M347,82c-11-5-23,0-28,11s0,24,11,29c1,1,27,13,24,35c-2,13,8,25,22,25c11,0,20-8,21-19C403,119,368,91,347,82z"/>
	<path d="M342,192c-12,0-22,10-22,22s10,21,22,21s22-9,22-21S354,192,342,192z"/>
</g>
</svg>
