<?xml version="1.0" encoding="utf-8"?>
<!-- Generator: Adobe Illustrator 16.0.4, SVG Export Plug-In . SVG Version: 6.00 Build 0)  -->
<!DOCTYPE svg PUBLIC "-//W3C//DTD SVG 1.1//EN" "http://www.w3.org/Graphics/SVG/1.1/DTD/svg11.dtd">
<svg version="1.1" id="Layer_1" xmlns="http://www.w3.org/2000/svg" xmlns:xlink="http://www.w3.org/1999/xlink" x="0px" y="0px"
	 width="512px" height="512px" viewBox="0 0 512 512" enable-background="new 0 0 512 512" xml:space="preserve">
<path d="M482,171l-143-11L275,19c-4-8-11-12-20-12s-16,4-20,12l-64,141L28,171c-18,1-28,25-13,38l120,101L95,451c-2,9,1,19,8,24
	s16,6,24,1l128-83l127,83c4,2,8,3,12,3c15,0,25-15,21-28l-40-141l119-101C509,196,500,172,482,171z M336,286c-7,6-8,14-6,22l28,100
	l-91-59c-4-2-8-4-12-4s-8,2-12,4l-91,59l28-100c2-8,0-16-7-22l-89-76l103-7c8-1,15-6,18-13l50-109l50,109c3,7,10,12,18,13l103,7
	L336,286z"/>
</svg>
