<?xml version="1.0" encoding="utf-8"?>
<!-- Generator: Adobe Illustrator 16.0.4, SVG Export Plug-In . SVG Version: 6.00 Build 0)  -->
<!DOCTYPE svg PUBLIC "-//W3C//DTD SVG 1.1//EN" "http://www.w3.org/Graphics/SVG/1.1/DTD/svg11.dtd">
<svg version="1.1" id="Layer_1" xmlns="http://www.w3.org/2000/svg" xmlns:xlink="http://www.w3.org/1999/xlink" x="0px" y="0px"
	 width="512px" height="512px" viewBox="0 0 512 512" enable-background="new 0 0 512 512" xml:space="preserve">
<g>
	<path d="M407,1H103C77,1,61,17,61,42v422c0,25,16,41,42,41h304c26,0,42-16,42-41V42C449,17,433,1,407,1z M417,464c0,5,0,8-10,8H103
		c-10,0-10-3-10-8V42c0-5,0-8,10-8h304c10,0,10,3,10,8V464z"/>
	<path d="M385,60H125c-6,0-11,5-11,11v329c0,6,5,11,11,11h260c6,0,11-5,11-11V71C396,65,391,60,385,60z M374,389H136V82h238V389z"/>
	<path d="M241,429c-4,4-5,8-5,13c0,10,9,19,19,19s19-9,19-19c0-5-2-9-6-13C261,422,248,422,241,429z"/>
</g>
</svg>
