<?xml version="1.0" encoding="utf-8"?>
<!-- Generator: Adobe Illustrator 16.0.4, SVG Export Plug-In . SVG Version: 6.00 Build 0)  -->
<!DOCTYPE svg PUBLIC "-//W3C//DTD SVG 1.1//EN" "http://www.w3.org/Graphics/SVG/1.1/DTD/svg11.dtd">
<svg version="1.1" id="Layer_1" xmlns="http://www.w3.org/2000/svg" xmlns:xlink="http://www.w3.org/1999/xlink" x="0px" y="0px"
	 width="512px" height="512px" viewBox="0 0 512 512" enable-background="new 0 0 512 512" xml:space="preserve">
<g>
	<path d="M466,29H44C19,29,3,45,3,71v304c0,26,16,42,41,42h422c25,0,41-16,41-42V71C507,45,491,29,466,29z M474,375c0,10-3,10-8,10
		H44c-5,0-8,0-8-10V71c0-10,3-10,8-10h422c5,0,8,0,8,10V375z"/>
	<path d="M437,82H108c-6,0-11,5-11,11v260c0,6,5,11,11,11h329c6,0,11-5,11-11V93C448,87,443,82,437,82z M426,342H119V104h307V342z"
		/>
	<path d="M66,204c-10,0-19,9-19,19s9,19,19,19c5,0,9-2,13-6c7-7,7-20,0-27C75,205,71,204,66,204z"/>
</g>
</svg>
