<?xml version="1.0" encoding="utf-8"?>
<!-- Generator: Adobe Illustrator 16.0.4, SVG Export Plug-In . SVG Version: 6.00 Build 0)  -->
<!DOCTYPE svg PUBLIC "-//W3C//DTD SVG 1.1//EN" "http://www.w3.org/Graphics/SVG/1.1/DTD/svg11.dtd">
<svg version="1.1" id="Layer_1" xmlns="http://www.w3.org/2000/svg" xmlns:xlink="http://www.w3.org/1999/xlink" x="0px" y="0px"
	 width="512px" height="512px" viewBox="0 0 512 512" enable-background="new 0 0 512 512" xml:space="preserve">
<path d="M451,71H59c-14,0-25-11-25-25s11-24,25-24h392c14,0,24,10,24,24S465,71,451,71z"/>
<path d="M451,140c14,0,24,10,24,24s-10,25-24,25H226c-14,0-25-11-25-25s11-24,25-24H451z"/>
<path d="M451,257c14,0,24,11,24,25s-10,24-24,24H159c-14,0-24-10-24-24s10-25,24-25H451z"/>
<path d="M449,375c14,0,25,10,25,24s-11,25-25,25H78c-14,0-24-11-24-25s10-24,24-24H449z"/>
</svg>
