<?xml version="1.0" encoding="utf-8"?>
<!-- Generator: Adobe Illustrator 16.0.4, SVG Export Plug-In . SVG Version: 6.00 Build 0)  -->
<!DOCTYPE svg PUBLIC "-//W3C//DTD SVG 1.1//EN" "http://www.w3.org/Graphics/SVG/1.1/DTD/svg11.dtd">
<svg version="1.1" id="Layer_1" xmlns="http://www.w3.org/2000/svg" xmlns:xlink="http://www.w3.org/1999/xlink" x="0px" y="0px"
	 width="512px" height="512px" viewBox="0 0 512 512" enable-background="new 0 0 512 512" xml:space="preserve">
<g>
	<path d="M187,153h129c11,0,20-8,20-19s-9-19-20-19H187c-11,0-19,8-19,19S176,153,187,153z"/>
	<path d="M302,292c-4,4-5,9-5,14c0,10,9,19,19,19s19-9,19-19c0-5-2-10-6-14C322,285,309,285,302,292z"/>
	<path d="M187,239h129c11,0,20-8,20-19s-9-19-20-19H187c-11,0-19,8-19,19S176,239,187,239z"/>
	<path d="M418,15H92c-12,0-22,10-22,22v432c0,12,10,21,22,21h326c12,0,22-9,22-21V37C440,25,430,15,418,15z M396,447H114V59h282V447
		z"/>
	<path d="M184,325h64c11,0,19-8,19-19s-8-19-19-19h-64c-11,0-19,8-19,19S173,325,184,325z"/>
</g>
</svg>
