<?xml version="1.0" encoding="utf-8"?>
<!-- Generator: Adobe Illustrator 16.0.4, SVG Export Plug-In . SVG Version: 6.00 Build 0)  -->
<!DOCTYPE svg PUBLIC "-//W3C//DTD SVG 1.1//EN" "http://www.w3.org/Graphics/SVG/1.1/DTD/svg11.dtd">
<svg version="1.1" id="Layer_1" xmlns="http://www.w3.org/2000/svg" xmlns:xlink="http://www.w3.org/1999/xlink" x="0px" y="0px"
	 width="512px" height="512px" viewBox="0 0 512 512" enable-background="new 0 0 512 512" xml:space="preserve">
<path d="M454,206L321,73c-5-5-12-8-18-8s-12,3-17,8c-10,10-10,24,0,34l91,91H73c-14,0-24,11-24,25s10,24,24,24h304l-91,92
	c-10,10-10,24,0,34s25,10,35,0l133-133c5-5,7-10,7-17S459,211,454,206z"/>
</svg>
