<?xml version="1.0" encoding="utf-8"?>
<!-- Generator: Adobe Illustrator 16.0.4, SVG Export Plug-In . SVG Version: 6.00 Build 0)  -->
<!DOCTYPE svg PUBLIC "-//W3C//DTD SVG 1.1//EN" "http://www.w3.org/Graphics/SVG/1.1/DTD/svg11.dtd">
<svg version="1.1" id="Layer_1" xmlns="http://www.w3.org/2000/svg" xmlns:xlink="http://www.w3.org/1999/xlink" x="0px" y="0px"
	 width="512px" height="512px" viewBox="0 0 512 512" enable-background="new 0 0 512 512" xml:space="preserve">
<path d="M436,198c14,0,25,11,25,25s-11,24-25,24H133l91,92c10,10,10,24,0,34c-5,5-11,7-17,7s-13-2-18-7L56,240c-5-5-7-11-7-17
	c0-7,2-12,7-17L189,73c10-10,25-10,35,0s10,24,0,34l-91,91H436z"/>
</svg>
