<?xml version="1.0" encoding="utf-8"?>
<!-- Generator: Adobe Illustrator 16.0.4, SVG Export Plug-In . SVG Version: 6.00 Build 0)  -->
<!DOCTYPE svg PUBLIC "-//W3C//DTD SVG 1.1//EN" "http://www.w3.org/Graphics/SVG/1.1/DTD/svg11.dtd">
<svg version="1.1" id="Layer_1" xmlns="http://www.w3.org/2000/svg" xmlns:xlink="http://www.w3.org/1999/xlink" x="0px" y="0px"
	 width="512px" height="512px" viewBox="0 0 512 512" enable-background="new 0 0 512 512" xml:space="preserve">
<g>
	<path d="M376,46C345,24,235,6,180,6c-29,0-40,5-46,8c-25,14-58,93-82,160c-28,21-41,48-37,75c4,26,23,48,52,57c15,5,41,11,62,16
		c-39,56-46,113-32,146c9,20,26,32,47,32c45,0,52-41,62-69c7-21,42-59,94-88c39-22,75-51,77-52c5-4,9-10,9-17V64
		C386,57,382,50,376,46z M342,263c-13,10-38,28-63,42c-56,32-103,76-115,112c-1,4-3,8-4,12c-9,27-10,28-16,28c-2,0-4-1-7-7
		c-9-21-1-74,47-126c12-13,4-33-11-36c-1,0-66-16-93-24c-13-4-21-12-22-21c-2-12,7-25,24-37c4-3,7-7,9-11c22-60,53-132,65-144
		c2-1,8-2,24-2c52,0,132,16,162,28V263z"/>
	<path d="M461,27c-20,0-36,15-36,35v214c0,20,16,36,36,36s35-16,35-36V62C496,42,481,27,461,27z"/>
</g>
</svg>
