<?xml version="1.0" encoding="utf-8"?>
<!-- Generator: Adobe Illustrator 16.0.4, SVG Export Plug-In . SVG Version: 6.00 Build 0)  -->
<!DOCTYPE svg PUBLIC "-//W3C//DTD SVG 1.1//EN" "http://www.w3.org/Graphics/SVG/1.1/DTD/svg11.dtd">
<svg version="1.1" id="Layer_1" xmlns="http://www.w3.org/2000/svg" xmlns:xlink="http://www.w3.org/1999/xlink" x="0px" y="0px"
	 width="512px" height="512px" viewBox="0 0 512 512" enable-background="new 0 0 512 512" xml:space="preserve">
<g>
	<path d="M495,257c-4-26-23-48-52-57c-15-5-42-11-63-16c39-56,46-113,32-146c-9-20-25-32-46-32c-45,0-52,41-62,69c-7,21-42,59-94,88
		c-39,22-76,51-78,52c-5,4-8,10-8,17v210c0,7,3,13,9,17c31,22,142,41,197,41c29,0,40-5,46-8c25-14,58-93,82-160
		C486,311,499,284,495,257z M427,300c-4,3-6,7-8,11c-22,60-53,131-65,143c-2,1-8,3-24,3c-52,0-132-16-162-28V243c13-10,38-28,63-42
		c56-32,103-76,115-112c1-4,2-9,3-13c9-27,11-27,17-27c2,0,4,0,7,6c9,21,1,75-47,127c-12,13-4,33,11,36c1,0,66,15,93,23
		c13,4,21,13,22,22C454,275,444,288,427,300z"/>
	<path d="M49,194c-20,0-35,15-35,35v215c0,20,15,35,35,35s36-15,36-35V229C85,209,69,194,49,194z"/>
</g>
</svg>
