<?xml version="1.0" encoding="utf-8"?>
<!-- Generator: Adobe Illustrator 16.0.4, SVG Export Plug-In . SVG Version: 6.00 Build 0)  -->
<!DOCTYPE svg PUBLIC "-//W3C//DTD SVG 1.1//EN" "http://www.w3.org/Graphics/SVG/1.1/DTD/svg11.dtd">
<svg version="1.1" id="Layer_1" xmlns="http://www.w3.org/2000/svg" xmlns:xlink="http://www.w3.org/1999/xlink" x="0px" y="0px"
	 width="512px" height="512px" viewBox="0 0 512 512" enable-background="new 0 0 512 512" xml:space="preserve">
<g>
	<path d="M399,136c-12,0-22,10-22,22v275H132V158c0-12-9-22-21-22s-22,10-22,22v297c0,12,10,21,22,21h288c12,0,22-9,22-21V158
		C421,146,411,136,399,136z"/>
	<path d="M453,66H323V23c0-8-5-13-13-13H200c-8,0-13,5-13,13v43H57c-12,0-22,10-22,22s10,21,22,21h396c12,0,22-9,22-21
		S465,66,453,66z M296,66h-82V37h82V66z"/>
	<path d="M203,387V173c0-8-6-14-14-14s-13,6-13,14v214c0,8,5,14,13,14S203,395,203,387z"/>
	<path d="M269,388V173c0-8-6-13-14-13s-14,5-14,13v215c0,8,6,13,14,13S269,396,269,388z"/>
	<path d="M333,388V174c0-8-5-14-13-14s-14,6-14,14v214c0,8,6,14,14,14S333,396,333,388z"/>
</g>
</svg>
