<?xml version="1.0" encoding="utf-8"?>
<!-- Generator: Adobe Illustrator 16.0.4, SVG Export Plug-In . SVG Version: 6.00 Build 0)  -->
<!DOCTYPE svg PUBLIC "-//W3C//DTD SVG 1.1//EN" "http://www.w3.org/Graphics/SVG/1.1/DTD/svg11.dtd">
<svg version="1.1" id="Layer_1" xmlns="http://www.w3.org/2000/svg" xmlns:xlink="http://www.w3.org/1999/xlink" x="0px" y="0px"
	 width="512px" height="512px" viewBox="0 0 512 512" enable-background="new 0 0 512 512" xml:space="preserve">
<g>
	<path d="M493,401L274,21c-4-7-11-11-19-11s-15,4-19,11L15,403c-10,17,5,33,19,33h442c12,0,21-10,21-22C497,409,496,405,493,401z
		 M72,392L255,75l183,317H72z"/>
	<path d="M233,173v97c0,12,10,22,22,22s22-10,22-22v-97c0-12-10-22-22-22S233,161,233,173z"/>
	<path d="M255,311c-15,0-27,12-27,27s12,28,27,28s27-13,27-28S270,311,255,311z"/>
</g>
</svg>
