<?xml version="1.0" encoding="utf-8"?>
<!-- Generator: Adobe Illustrator 16.0.4, SVG Export Plug-In . SVG Version: 6.00 Build 0)  -->
<!DOCTYPE svg PUBLIC "-//W3C//DTD SVG 1.1//EN" "http://www.w3.org/Graphics/SVG/1.1/DTD/svg11.dtd">
<svg version="1.1" id="Layer_1" xmlns="http://www.w3.org/2000/svg" xmlns:xlink="http://www.w3.org/1999/xlink" x="0px" y="0px"
	 width="512px" height="512px" viewBox="0 0 512 512" enable-background="new 0 0 512 512" xml:space="preserve">
<path d="M464,295c15,0,27,12,27,27v147c0,15-12,27-27,27H46c-15,0-28-12-28-27V322c0-15,13-27,28-27s27,12,27,27v119h364V322
	C437,307,449,295,464,295z"/>
<path d="M164,166c-11,11-27,11-38,0s-11-27,0-38L236,18c5-5,12-8,19-8s14,3,19,8l110,110c11,11,11,27,0,38c-5,5-12,8-19,8
	s-15-3-20-8l-63-63v234c0,15-12,27-27,27s-27-12-27-27V103L164,166z"/>
</svg>
