<?xml version="1.0" encoding="utf-8"?>
<!-- Generator: Adobe Illustrator 16.0.4, SVG Export Plug-In . SVG Version: 6.00 Build 0)  -->
<!DOCTYPE svg PUBLIC "-//W3C//DTD SVG 1.1//EN" "http://www.w3.org/Graphics/SVG/1.1/DTD/svg11.dtd">
<svg version="1.1" id="Layer_1" xmlns="http://www.w3.org/2000/svg" xmlns:xlink="http://www.w3.org/1999/xlink" x="0px" y="0px"
	 width="512px" height="512px" viewBox="0 0 512 512" enable-background="new 0 0 512 512" xml:space="preserve">
<g>
	<path d="M255,303c80,0,145-65,145-145S335,13,255,13S110,78,110,158S175,303,255,303z M255,56c56,0,101,46,101,102s-45,101-101,101
		s-101-45-101-101S199,56,255,56z"/>
	<path d="M322,316c-7-2-15-1-21,4l-46,39l-46-39c-6-5-14-6-21-4C158,326,8,377,8,451c0,12,9,22,21,22h451c12,0,22-10,22-22
		C502,377,352,326,322,316z M63,429c24-25,80-52,127-68l51,43c8,7,20,7,28,0l51-43c47,16,103,43,127,68H63z"/>
</g>
</svg>
