<?xml version="1.0" encoding="utf-8"?>
<!-- Generator: Adobe Illustrator 16.0.4, SVG Export Plug-In . SVG Version: 6.00 Build 0)  -->
<!DOCTYPE svg PUBLIC "-//W3C//DTD SVG 1.1//EN" "http://www.w3.org/Graphics/SVG/1.1/DTD/svg11.dtd">
<svg version="1.1" id="Layer_1" xmlns="http://www.w3.org/2000/svg" xmlns:xlink="http://www.w3.org/1999/xlink" x="0px" y="0px"
	 width="512px" height="512px" viewBox="0 0 512 512" enable-background="new 0 0 512 512" xml:space="preserve">
<g>
	<path d="M198,273c65,0,117-52,117-117S263,39,198,39S81,91,81,156S133,273,198,273z M198,79c42,0,76,35,76,77s-34,76-76,76
		s-77-34-77-76S156,79,198,79z"/>
	<path d="M251,277c-7-2-14,0-19,4l-34,29l-35-29c-5-4-12-6-19-4C110,288,0,328,0,387c0,11,9,20,20,20h355c11,0,20-9,20-20
		C395,328,285,288,251,277z M55,367c19-16,55-36,91-48l39,33c8,6,18,6,26,0l39-33c36,12,72,32,91,48H55z"/>
	<path d="M441,276c-8-4-16-1-20,7s-1,16,7,20c12,6,34,21,45,35h-54c-8,0-15,7-15,15s7,16,15,16h76c8,0,15-8,15-16
		C510,311,448,279,441,276z"/>
	<path d="M366,250c-12,0-24-5-33-14c-6-6-15-6-21,0s-6,16,0,22c15,15,33,22,54,22c42,0,77-35,77-77s-35-76-77-76c-16,0-46,5-38,25
		c3,8,12,12,20,9c6-2,12-4,18-4c26,0,47,20,47,46S392,250,366,250z"/>
</g>
</svg>
