<?xml version="1.0" encoding="utf-8"?>
<!-- Generator: Adobe Illustrator 16.0.4, SVG Export Plug-In . SVG Version: 6.00 Build 0)  -->
<!DOCTYPE svg PUBLIC "-//W3C//DTD SVG 1.1//EN" "http://www.w3.org/Graphics/SVG/1.1/DTD/svg11.dtd">
<svg version="1.1" id="Layer_1" xmlns="http://www.w3.org/2000/svg" xmlns:xlink="http://www.w3.org/1999/xlink" x="0px" y="0px"
	 width="512px" height="512px" viewBox="0 0 512 512" enable-background="new 0 0 512 512" xml:space="preserve">
<g>
	<path d="M178,14H65c-26,0-48,22-48,48v84c0,26,22,48,48,48h113c26,0,48-22,48-48V62C226,36,204,14,178,14z M182,146c0,2-2,4-4,4H65
		c-2,0-4-2-4-4V62c0-2,2-4,4-4h113c2,0,4,2,4,4V146z"/>
	<path d="M444,14H332c-26,0-48,22-48,48v84c0,26,22,48,48,48h112c26,0,48-22,48-48V62C492,36,470,14,444,14z M449,146c0,2-3,4-5,4
		H332c-2,0-4-2-4-4V62c0-2,2-4,4-4h112c2,0,5,2,5,4V146z"/>
	<path d="M178,252H65c-26,0-48,22-48,48v83c0,26,22,48,48,48h113c26,0,48-22,48-48v-83C226,274,204,252,178,252z M182,383
		c0,2-2,5-4,5H65c-2,0-4-3-4-5v-83c0-2,2-4,4-4h113c2,0,4,2,4,4V383z"/>
	<path d="M444,252H332c-26,0-48,22-48,48v83c0,26,22,48,48,48h112c26,0,48-22,48-48v-83C492,274,470,252,444,252z M449,383
		c0,2-3,5-5,5H332c-2,0-4-3-4-5v-83c0-2,2-4,4-4h112c2,0,5,2,5,4V383z"/>
</g>
</svg>
