<?xml version="1.0" encoding="utf-8"?>
<!-- Generator: Adobe Illustrator 16.0.4, SVG Export Plug-In . SVG Version: 6.00 Build 0)  -->
<!DOCTYPE svg PUBLIC "-//W3C//DTD SVG 1.1//EN" "http://www.w3.org/Graphics/SVG/1.1/DTD/svg11.dtd">
<svg version="1.1" id="Layer_1" xmlns="http://www.w3.org/2000/svg" xmlns:xlink="http://www.w3.org/1999/xlink" x="0px" y="0px"
	 width="512px" height="512px" viewBox="0 0 512 512" enable-background="new 0 0 512 512" xml:space="preserve">
<g>
	<path d="M126,71H41C19,71,0,89,0,111v53c0,22,19,41,41,41h85c22,0,40-19,40-41v-53C166,89,148,71,126,71z M125,164H42v-52h83V164z"
		/>
	<path d="M469,71H243c-22,0-41,18-41,40v53c0,22,19,41,41,41h226c22,0,41-19,41-41v-53C510,89,491,71,469,71z M468,164H244v-52h224
		V164z"/>
	<path d="M126,241H41c-22,0-41,18-41,40v53c0,22,19,41,41,41h85c22,0,40-19,40-41v-53C166,259,148,241,126,241z M125,333H42v-51h83
		V333z"/>
	<path d="M469,241H243c-22,0-41,18-41,40v53c0,22,19,41,41,41h226c22,0,41-19,41-41v-53C510,259,491,241,469,241z M468,333H244v-51
		h224V333z"/>
</g>
</svg>
