<?xml version="1.0" encoding="utf-8"?>
<!-- Generator: Adobe Illustrator 16.0.4, SVG Export Plug-In . SVG Version: 6.00 Build 0)  -->
<!DOCTYPE svg PUBLIC "-//W3C//DTD SVG 1.1//EN" "http://www.w3.org/Graphics/SVG/1.1/DTD/svg11.dtd">
<svg version="1.1" id="Layer_1" xmlns="http://www.w3.org/2000/svg" xmlns:xlink="http://www.w3.org/1999/xlink" x="0px" y="0px"
	 width="512px" height="512px" viewBox="0 0 512 512" enable-background="new 0 0 512 512" xml:space="preserve">
<path d="M462,22c-9-9-22-9-30,0l-77,76V27c0-18-23-29-37-15L206,124h-56c-12,0-22,10-22,22v180l-80,80c-9,9-9,22,0,31c4,4,9,6,15,6
	s11-2,15-6l76-76h52l112,113c4,4,10,6,16,6c13,0,21-10,21-21V160L462,53C471,44,471,31,462,22z M312,406l-82-82c-4-4-9-6-15-6h-17
	l114-115V406z M312,142L171,282V168h44c6,0,11-2,15-6l82-82V142z"/>
</svg>
