<?xml version="1.0" encoding="utf-8"?>
<!-- Generator: Adobe Illustrator 16.0.4, SVG Export Plug-In . SVG Version: 6.00 Build 0)  -->
<!DOCTYPE svg PUBLIC "-//W3C//DTD SVG 1.1//EN" "http://www.w3.org/Graphics/SVG/1.1/DTD/svg11.dtd">
<svg version="1.1" id="Layer_1" xmlns="http://www.w3.org/2000/svg" xmlns:xlink="http://www.w3.org/1999/xlink" x="0px" y="0px"
	 width="512px" height="512px" viewBox="0 0 512 512" enable-background="new 0 0 512 512" xml:space="preserve">
<g>
	<path d="M186,17L76,127H21c-12,0-21,10-21,22v188c0,12,9,22,21,22h55l110,110c4,4,9,6,15,6c13,0,21-11,21-22V32
		C222,15,200,3,186,17z M180,402l-80-80c-4-4-9-6-15-6H43V170h42c6,0,11-2,15-6l80-80V402z"/>
	<path d="M294,150c-8-9-21-10-30-2s-10,21-2,30c2,3,58,66,0,130c-13,14-1,35,16,35c6,0,12-2,16-7C360,262,323,182,294,150z"/>
	<path d="M361,90c-8-9-21-9-30-1s-9,21-1,30c5,5,110,125,0,248c-13,14-1,36,16,36c6,0,11-3,15-8C496,244,362,92,361,90z"/>
	<path d="M498,168c-22-72-64-120-66-122c-8-9-21-10-30-2s-10,21-2,30c0,0,38,43,57,106c25,83,6,161-57,231c-13,14-1,36,16,36
		c6,0,12-2,16-7C523,338,518,236,498,168z"/>
</g>
</svg>
