<?xml version="1.0" encoding="utf-8"?>
<!-- Generator: Adobe Illustrator 16.0.4, SVG Export Plug-In . SVG Version: 6.00 Build 0)  -->
<!DOCTYPE svg PUBLIC "-//W3C//DTD SVG 1.1//EN" "http://www.w3.org/Graphics/SVG/1.1/DTD/svg11.dtd">
<svg version="1.1" id="Layer_1" xmlns="http://www.w3.org/2000/svg" xmlns:xlink="http://www.w3.org/1999/xlink" x="0px" y="0px"
	 width="512px" height="512px" viewBox="0 0 512 512" enable-background="new 0 0 512 512" xml:space="preserve">
<path d="M480,21H29C17,21,8,31,8,43v360c0,12,9,22,21,22h451c12,0,22-10,22-22V43C502,31,492,21,480,21z M215,64h59v51h-59V64z
	 M129,64h59v51h-59V64z M51,64h51v51H51V64z M459,381H51V148h408V381z M459,115H301V64h158V115z"/>
</svg>
